<?xml version="1.0" encoding="UTF-8" standalone="no"?>
<svg width="512" height="512" viewBox="0 0 512 512" fill="none" xmlns="http://www.w3.org/2000/svg">
  <rect width="512" height="512" fill="#0e1117"/>
  <g filter="url(#filter0_d)">
    <path d="M256 95C167.2 95 95 167.2 95 256C95 344.8 167.2 417 256 417C344.8 417 417 344.8 417 256C417 167.2 344.8 95 256 95ZM256 381.3C187.1 381.3 130.7 324.9 130.7 256C130.7 187.1 187.1 130.7 256 130.7C324.9 130.7 381.3 187.1 381.3 256C381.3 324.9 324.9 381.3 256 381.3Z" fill="#39FF14"/>
    <path d="M304.9 186.4L245.3 246L207.1 207.8L186.4 228.5L245.3 287.4L325.6 207.1L304.9 186.4Z" fill="#39FF14"/>
    <path d="M256 184.9C216.9 184.9 184.9 216.9 184.9 256C184.9 295.1 216.9 327.1 256 327.1C295.1 327.1 327.1 295.1 327.1 256C327.1 216.9 295.1 184.9 256 184.9ZM256 291.5C236.7 291.5 220.5 275.3 220.5 256C220.5 236.7 236.7 220.5 256 220.5C275.3 220.5 291.5 236.7 291.5 256C291.5 275.3 275.3 291.5 256 291.5Z" fill="#FF00FF"/>
  </g>
  <!-- Network/data lines -->
  <path d="M75 256H130" stroke="#39FF14" stroke-width="2"/>
  <path d="M382 256H437" stroke="#39FF14" stroke-width="2"/>
  <path d="M256 75V130" stroke="#39FF14" stroke-width="2"/>
  <path d="M256 382V437" stroke="#39FF14" stroke-width="2"/>
  
  <!-- Diagonal network lines -->
  <path d="M125 125L166 166" stroke="#39FF14" stroke-width="2"/>
  <path d="M387 125L346 166" stroke="#39FF14" stroke-width="2"/>
  <path d="M125 387L166 346" stroke="#39FF14" stroke-width="2"/>
  <path d="M387 387L346 346" stroke="#39FF14" stroke-width="2"/>
  
  <!-- Small nodes at ends of lines -->
  <circle cx="75" cy="256" r="5" fill="#39FF14"/>
  <circle cx="437" cy="256" r="5" fill="#39FF14"/>
  <circle cx="256" cy="75" r="5" fill="#39FF14"/>
  <circle cx="256" cy="437" r="5" fill="#39FF14"/>
  <circle cx="125" cy="125" r="5" fill="#39FF14"/>
  <circle cx="387" cy="125" r="5" fill="#39FF14"/>
  <circle cx="125" cy="387" r="5" fill="#39FF14"/>
  <circle cx="387" cy="387" r="5" fill="#39FF14"/>
  
  <!-- Binary code decorations -->
  <text x="90" y="150" fill="#FF00FF" font-family="monospace" font-size="12">01001100</text>
  <text x="390" y="150" fill="#FF00FF" font-family="monospace" font-size="12">10110101</text>
  <text x="90" y="380" fill="#FF00FF" font-family="monospace" font-size="12">11010010</text>
  <text x="390" y="380" fill="#FF00FF" font-family="monospace" font-size="12">01100111</text>
  
  <defs>
    <filter id="filter0_d" x="85" y="85" width="342" height="342" filterUnits="userSpaceOnUse" color-interpolation-filters="sRGB">
      <feFlood flood-opacity="0" result="BackgroundImageFix"/>
      <feColorMatrix in="SourceAlpha" type="matrix" values="0 0 0 0 0 0 0 0 0 0 0 0 0 0 0 0 0 0 127 0"/>
      <feOffset/>
      <feGaussianBlur stdDeviation="5"/>
      <feColorMatrix type="matrix" values="0 0 0 0 0.224 0 0 0 0 1 0 0 0 0 0.078 0 0 0 1 0"/>
      <feBlend mode="normal" in2="BackgroundImageFix" result="effect1_dropShadow"/>
      <feBlend mode="normal" in="SourceGraphic" in2="effect1_dropShadow" result="shape"/>
    </filter>
  </defs>
</svg>